<svg width="256" height="256" viewBox="0 0 256 256" fill="none" xmlns="http://www.w3.org/2000/svg">
<path d="M96.0001 220C93.6268 220 91.3068 219.296 89.3335 217.977C87.3602 216.659 85.8222 214.785 84.914 212.592C84.0058 210.399 83.7682 207.987 84.2312 205.659C84.6941 203.331 85.8369 201.193 87.5151 199.515L159.029 128L87.5151 56.485C85.2949 54.2284 84.0564 51.1859 84.0693 48.0202C84.0821 44.8546 85.3454 41.8223 87.5839 39.5838C89.8223 37.3453 92.8546 36.0821 96.0203 36.0692C99.1859 36.0563 102.228 37.2948 104.485 39.515L184.485 119.515C186.735 121.765 187.999 124.818 187.999 128C187.999 131.182 186.735 134.235 184.485 136.485L104.485 216.485C103.372 217.601 102.049 218.486 100.593 219.089C99.1372 219.692 97.5762 220.002 96.0001 220V220Z" fill="black"/>
</svg>
