<svg width="64" height="64" viewBox="0 0 64 64" fill="none" xmlns="http://www.w3.org/2000/svg">
<g clip-path="url(#clip0)">
<path d="M4.18789 15.5654L4.18912 15.5667C4.28313 15.6607 4.89982 16.0675 6.62344 15.5292C8.221 15.0303 10.1854 13.8515 12.02 12.0165L12.0202 12.0162C13.8538 10.1826 15.0319 8.21923 15.5306 6.6221C16.0675 4.9026 15.6641 4.28361 15.5679 4.1865C15.4048 4.0243 14.8563 3.65158 13.8258 3.28055C12.8543 2.93075 11.6548 2.6553 10.3939 2.54816C7.76018 2.32436 5.47006 2.86644 4.16771 4.16778C4.16757 4.16792 4.16743 4.16806 4.16729 4.16821M4.18789 15.5654L4.16729 4.16821M4.18789 15.5654C4.02681 15.4045 3.65323 14.8569 3.28113 13.8242C2.93116 12.8529 2.65557 11.6536 2.54833 10.3927C2.3243 7.75895 2.86653 5.46935 4.16729 4.16821M4.18789 15.5654L4.16729 4.16821" fill="#FAC9B6" stroke="black" stroke-width="5"/>
<path d="M59.653 15.5654L59.6514 15.5671C59.558 15.6605 58.9421 16.0675 57.2184 15.5292C55.6209 15.0303 53.6566 13.8515 51.8219 12.0165L51.8217 12.0162C49.9881 10.1826 48.81 8.2192 48.3112 6.62197C47.773 4.89901 48.1789 4.28075 48.2739 4.18555L46.505 2.41905L48.2715 4.18801C48.4337 4.02606 48.9826 3.65242 50.0155 3.28056C50.9871 2.93074 52.1866 2.6553 53.4474 2.54816C56.0809 2.32436 58.3708 2.86642 59.6732 4.16778C59.6733 4.16789 59.6734 4.16801 59.6735 4.16813C59.6736 4.16815 59.6736 4.16818 59.6736 4.16821C60.9744 5.46935 61.5166 7.75895 61.2926 10.3927C61.1853 11.6536 60.9097 12.8529 60.5598 13.8242C60.1877 14.8569 59.8141 15.4045 59.653 15.5654Z" fill="#FAC9B6" stroke="black" stroke-width="5"/>
<path d="M60.809 33.07C60.809 49.049 47.859 62.002 31.879 62.002C15.899 62.002 2.948 49.05 2.948 33.07C2.948 17.094 15.898 5.97 31.878 5.97C47.858 5.97 60.809 17.093 60.809 33.07Z" fill="black"/>
<path d="M53.53 33.3C53.53 45.261 43.836 54.956 31.874 54.956C19.912 54.956 10.218 45.261 10.218 33.3C10.218 21.342 19.913 13.017 31.874 13.017C43.835 13.017 53.53 21.342 53.53 33.3Z" fill="#FAC9B6"/>
<path d="M34.5549 35.13C34.5549 36.886 33.1599 38.306 31.4379 38.306C29.7159 38.306 28.3209 36.886 28.3209 35.13V20.204C28.3209 18.453 29.7159 17.033 31.4379 17.033C33.1609 17.033 34.5549 18.453 34.5549 20.204V35.13Z" fill="#25333A"/>
<path d="M31.6249 38.31C29.7969 38.31 28.3199 37.342 28.3199 36.149C28.3199 34.959 29.7969 33.992 31.6249 33.992H47.1819C49.0089 33.992 50.4899 34.959 50.4899 36.149C50.4899 37.342 49.0099 38.31 47.1819 38.31H31.6249Z" fill="#25333A"/>
</g>
<defs>
<clipPath id="clip0">
<rect width="64" height="64" fill="white"/>
</clipPath>
</defs>
</svg>
