<svg width="128" height="128" viewBox="0 0 128 128" fill="none" xmlns="http://www.w3.org/2000/svg">
<path d="M64.08 38.51C64.08 38.51 70.54 40.78 80.53 42.38C93.28 44.42 112.42 44.42 115.61 37.5C118.23 31.82 106.04 4.12 98.32 4.12C92.72 4.12 90.21 7.93 82.6 16.44C74.99 24.95 64.08 38.51 64.08 38.51Z" fill="url(#paint0_radial)"/>
<path d="M78.29 31.12C78.29 31.12 89.59 15.28 96.06 10.48C99.24 8.13 102.37 11.29 100.15 14.82C98.03 18.22 78.29 31.12 78.29 31.12Z" fill="#FBC02D"/>
<path d="M63.96 38.51C63.96 38.51 57.5 40.78 47.51 42.38C34.76 44.42 15.62 44.42 12.43 37.5C9.83003 31.81 22.01 4.10999 29.73 4.10999C35.33 4.10999 37.84 7.91998 45.45 16.43C53.06 24.94 63.96 38.51 63.96 38.51V38.51Z" fill="url(#paint1_radial)"/>
<path d="M49.76 31.12C49.76 31.12 38.46 15.28 31.99 10.48C28.81 8.13 25.68 11.29 27.9 14.82C30.02 18.22 49.76 31.12 49.76 31.12Z" fill="#FBC02D"/>
<path opacity="0.2" d="M98.32 7.10999C98.83 7.10999 100.82 8.07998 103.87 12.5C110.11 21.57 113.74 33.98 112.88 36.23C111.96 38.22 106.83 40.55 95.38 40.55C90.72 40.55 85.62 40.14 81 39.41C76.08 38.62 72.02 37.66 69.23 36.91C72.97 32.33 79.69 24.17 84.83 18.43C85.84 17.3 86.76 16.26 87.61 15.3C93.2 8.93999 94.96 7.10999 98.32 7.10999V7.10999ZM98.32 4.10999C92.72 4.10999 90.21 7.91998 82.6 16.43C74.99 24.94 64.08 38.51 64.08 38.51C64.08 38.51 70.54 40.78 80.53 42.38C85.01 43.1 90.29 43.56 95.38 43.56C104.77 43.56 113.54 41.98 115.61 37.5C118.22 31.81 106.04 4.10999 98.32 4.10999V4.10999Z" fill="#424242"/>
<path opacity="0.2" d="M29.73 7.10999C33.09 7.10999 34.85 8.93999 40.44 15.29C41.29 16.25 42.21 17.3 43.22 18.42C48.36 24.16 55.08 32.32 58.82 36.9C56.03 37.65 51.97 38.61 47.05 39.4C42.43 40.14 37.33 40.54 32.67 40.54C21.22 40.54 16.09 38.21 15.17 36.23C14.31 33.97 17.93 21.55 24.18 12.49C27.22 8.07998 29.22 7.10999 29.73 7.10999V7.10999ZM29.73 4.10999C22.01 4.10999 9.83003 31.81 12.44 37.49C14.51 41.98 23.28 43.55 32.67 43.55C37.76 43.55 43.03 43.09 47.52 42.37C57.51 40.78 63.97 38.5 63.97 38.5C63.97 38.5 53.07 24.93 45.46 16.42C37.85 7.90998 35.33 4.10999 29.73 4.10999V4.10999Z" fill="#424242"/>
<path d="M64.08 24.25C55.44 24.25 48.42 32.12 48.02 40H80.15C79.74 32.12 72.71 24.25 64.08 24.25V24.25Z" fill="#FBC02D"/>
<path opacity="0.2" d="M64.08 27.25C69.97 27.25 74.86 31.93 76.54 37H51.62C53.3 31.93 58.19 27.25 64.08 27.25ZM64.08 24.25C55.44 24.25 48.42 32.12 48.02 40H80.15C79.74 32.12 72.71 24.25 64.08 24.25V24.25Z" fill="#424242"/>
<path d="M112.09 124.01H15.91L11.91 51.14H116.09L112.09 124.01Z" fill="url(#paint2_linear)"/>
<path opacity="0.2" d="M112.92 54.14L109.25 121.02H18.75L15.08 54.14H112.92ZM116.09 51.14H11.91L15.91 124.02H112.1L116.09 51.14V51.14Z" fill="#424242"/>
<path d="M121.89 59.42H6.90001C6.72357 59.4223 6.5508 59.3696 6.40565 59.2692C6.26051 59.1689 6.1502 59.0259 6.09001 58.86C3.52001 51.39 3.59001 43.31 6.28001 35.88H121.89C124.5 43.32 124.57 51.37 122.08 58.86L121.89 59.42Z" fill="#2196F3"/>
<path opacity="0.2" d="M119.69 38.88C121.31 44.6145 121.31 50.6856 119.69 56.42H8.45994C6.79993 50.6912 6.79993 44.6088 8.45994 38.88H119.69ZM121.89 35.88H6.27994C3.58349 43.2916 3.51641 51.4048 6.08994 58.86C6.20994 59.2 6.52994 59.42 6.89994 59.42H121.89L122.08 58.85C124.568 51.3846 124.501 43.3033 121.89 35.88V35.88Z" fill="#424242"/>
<path d="M51.21 35.88H77.21V124.34H51.21V35.88Z" fill="url(#paint3_linear)"/>
<path opacity="0.2" d="M74.21 38.88V121.34H54.21V38.88H74.21ZM77.21 35.88H51.21V124.34H77.21V35.88Z" fill="#424242"/>
<defs>
<radialGradient id="paint0_radial" cx="0" cy="0" r="1" gradientUnits="userSpaceOnUse" gradientTransform="translate(101.79 13.3817) rotate(180) scale(34.324 37.9315)">
<stop offset="0.256" stop-color="#FFEB3B"/>
<stop offset="1" stop-color="#FBC02D"/>
</radialGradient>
<radialGradient id="paint1_radial" cx="0" cy="0" r="1" gradientUnits="userSpaceOnUse" gradientTransform="translate(26.25 13.3817) scale(34.324 37.9315)">
<stop offset="0.256" stop-color="#FFEB3B"/>
<stop offset="1" stop-color="#FBC02D"/>
</radialGradient>
<linearGradient id="paint2_linear" x1="64" y1="99.024" x2="64" y2="40.759" gradientUnits="userSpaceOnUse">
<stop offset="0.375" stop-color="#2196F3"/>
<stop offset="0.827" stop-color="#1976D2"/>
</linearGradient>
<linearGradient id="paint3_linear" x1="50.861" y1="58.264" x2="83.116" y2="111.04" gradientUnits="userSpaceOnUse">
<stop offset="0.252" stop-color="#FFEB3B"/>
<stop offset="1" stop-color="#FBC02D"/>
</linearGradient>
</defs>
</svg>
