<svg width="21" height="20" viewBox="0 0 21 20" fill="none" xmlns="http://www.w3.org/2000/svg">
<circle cx="10" cy="10" r="10" fill="#77C6C9"/>
<path d="M9.50232 10.366V9.49997H14.5023V9.99997H10.7423H9.87755L10.309 10.7494L12.1898 14.0165L11.7554 14.2671L9.50232 10.366ZM1.50232 9.99997C1.50232 14.6961 5.30618 18.5 10.0023 18.5C14.6985 18.5 18.5023 14.6961 18.5023 9.99997C18.5023 5.30383 14.6985 1.49997 10.0023 1.49997C5.30618 1.49997 1.50232 5.30383 1.50232 9.99997ZM19.5023 9.99997C19.5023 15.2238 15.2262 19.5 10.0023 19.5C4.77846 19.5 0.502322 15.2238 0.502322 9.99997C0.502322 4.74709 4.77749 0.499969 10.0023 0.499969C15.2262 0.499969 19.5023 4.77611 19.5023 9.99997Z" fill="black" stroke="black"/>
</svg>
