<svg width="512" height="512" viewBox="0 0 512 512" fill="none" xmlns="http://www.w3.org/2000/svg">
<path d="M504.505 377.843H171.057V115.342C171.057 88.742 192.62 67.179 219.22 67.179H456.343C482.943 67.179 504.506 88.742 504.506 115.342V377.843H504.505Z" fill="#EF9901"/>
<path d="M87.196 198.558H148.481C160.949 198.558 171.057 209.746 171.057 223.547V377.508H6.81201V301.708C6.81201 292.844 9.47601 284.231 14.385 277.227L58.687 214.016C65.521 204.264 76.045 198.558 87.196 198.558V198.558Z" fill="white"/>
<path d="M15.4671 420.116H498.257C505.611 420.116 511.572 414.155 511.572 406.801V384.22C511.572 382.44 510.865 380.733 509.606 379.474C508.347 378.215 506.64 377.508 504.86 377.508H6.9081C5.6469 377.508 4.43735 378.009 3.54545 378.901C2.65356 379.792 2.15236 381.002 2.1521 382.263V406.8C2.1521 414.154 8.1141 420.116 15.4671 420.116V420.116Z" fill="#A21C14"/>
<path d="M37.7411 282.906L76.5881 227.512C77.4931 226.221 78.8851 225.466 80.3591 225.466H126.281C128.92 225.466 131.059 227.841 131.059 230.77V286.164C131.059 289.093 128.92 291.468 126.281 291.468H41.5121C37.5351 291.468 35.2981 286.389 37.7411 282.906V282.906Z" fill="#76DFFF"/>
<path d="M20.039 352.665H6.81201V317.603H20.039C26.241 317.603 31.268 322.63 31.268 328.832V341.435C31.268 347.638 26.241 352.665 20.039 352.665Z" fill="#FFD469"/>
<path d="M128.69 432.253C128.69 454.48 110.672 472.498 88.445 472.498C66.218 472.498 48.2 454.48 48.2 432.253C48.2 410.026 66.218 392.008 88.445 392.008C110.672 392.008 128.69 410.027 128.69 432.253ZM281.606 392.009C259.379 392.009 241.361 410.027 241.361 432.254C241.361 454.481 259.379 472.499 281.606 472.499C303.833 472.499 321.851 454.481 321.851 432.254C321.851 410.027 303.832 392.009 281.606 392.009ZM393.956 392.009C371.729 392.009 353.711 410.027 353.711 432.254C353.711 454.481 371.729 472.499 393.956 472.499C416.183 472.499 434.201 454.481 434.201 432.254C434.201 410.027 416.183 392.009 393.956 392.009Z" fill="#597B91"/>
</svg>
